<?xml version="1.0" encoding="UTF-8" standalone="no"?>
<svg
   xmlns:dc="http://purl.org/dc/elements/1.1/"
   xmlns:cc="http://creativecommons.org/ns#"
   xmlns:rdf="http://www.w3.org/1999/02/22-rdf-syntax-ns#"
   xmlns:svg="http://www.w3.org/2000/svg"
   xmlns="http://www.w3.org/2000/svg"
   xmlns:sodipodi="http://sodipodi.sourceforge.net/DTD/sodipodi-0.dtd"
   xmlns:inkscape="http://www.inkscape.org/namespaces/inkscape"
   sodipodi:docname="RepeatOne.svg"
   inkscape:version="1.0 (4035a4fb49, 2020-05-01)"
   id="svg8"
   version="1.1"
   viewBox="0 0 297 210"
   height="210mm"
   width="297mm">
  <defs
     id="defs2" />
  <sodipodi:namedview
     inkscape:window-maximized="1"
     inkscape:window-y="0"
     inkscape:window-x="0"
     inkscape:window-height="950"
     inkscape:window-width="1920"
     showgrid="false"
     inkscape:document-rotation="0"
     inkscape:current-layer="layer1"
     inkscape:document-units="mm"
     inkscape:cy="560"
     inkscape:cx="397.14286"
     inkscape:zoom="0.35"
     inkscape:pageshadow="2"
     inkscape:pageopacity="0.0"
     borderopacity="1.0"
     bordercolor="#666666"
     pagecolor="#ffffff"
     id="base" />
  <metadata
     id="metadata5">
    <rdf:RDF>
      <cc:Work
         rdf:about="">
        <dc:format>image/svg+xml</dc:format>
        <dc:type
           rdf:resource="http://purl.org/dc/dcmitype/StillImage" />
        <dc:title></dc:title>
      </cc:Work>
    </rdf:RDF>
  </metadata>
  <g
     id="layer1"
     inkscape:groupmode="layer"
     inkscape:label="Livello 1">
    <path
       id="path74"
       d="m 228.02887,187.12008 c -1.67601,-0.83583 -7.86711,-6.77929 -25.86838,-24.83368 -25.63432,-25.70996 -24.86495,-24.78799 -24.82471,-29.74841 0.0273,-3.37326 1.30619,-5.65593 5.54124,-9.89099 4.04169,-4.04169 6.2601,-5.23048 9.78659,-5.24443 4.3396,-0.0172 5.82174,1.07986 15.92472,11.78681 4.9743,5.27168 9.23389,9.58487 9.46575,9.58487 0.26163,0 0.42157,-13.55194 0.42157,-35.71787 0,-35.154827 0.0142,-35.747735 0.91767,-37.613508 1.52456,-3.149312 3.31054,-3.73099 11.45555,-3.73099 h 6.74659 l 3.69216,2.479216 c 2.03068,1.363572 4.14316,2.978358 4.69441,3.58842 l 1.00224,1.109199 v 34.942763 c 0,21.66433 0.1601,34.94277 0.42132,34.94277 0.23174,0 4.4439,-4.25959 9.36037,-9.46575 10.08538,-10.67963 11.75492,-11.92244 15.99377,-11.90593 3.54609,0.0142 5.70729,1.16111 9.78783,5.19601 4.22556,4.17829 5.54898,6.53709 5.57658,9.93941 0.0403,4.96042 0.80962,4.03845 -24.8247,29.74841 -25.73907,25.815 -25.87757,25.93249 -30.56948,25.93249 -1.76287,0 -3.14603,-0.3233 -4.70109,-1.09881 z M 54.551055,172.04931 c -2.188889,-0.69473 -5.915671,-4.55576 -6.585442,-6.82262 -0.411138,-1.39153 -0.541715,-13.81989 -0.541715,-51.56052 0,-30.976272 -0.158961,-49.727052 -0.421565,-49.727052 -0.231861,0 -4.49145,4.314931 -9.465754,9.588736 C 27.022411,84.675079 25.719936,85.59545 20.995726,85.216234 17.259756,84.916346 16.101447,84.232586 11.728437,79.745706 7.268665,75.169809 6.3088664,73.482914 6.2831866,70.175379 6.2446747,65.214086 5.4750523,66.136286 31.108737,40.426969 56.847794,14.611963 56.986291,14.494475 61.67821,14.494475 c 4.689878,0 4.831584,0.120144 30.586404,25.932494 23.357936,23.410114 23.692136,23.770142 24.424626,26.312608 1.3834,4.80181 0.14789,8.020732 -5.08793,13.256634 -4.14282,4.14281 -5.60121,4.952807 -9.38385,5.211784 -4.611261,0.315687 -5.989908,-0.670312 -16.503246,-11.803123 -4.916486,-5.206166 -9.129719,-9.465754 -9.362747,-9.465754 -0.265669,0 -0.381284,14.911301 -0.309974,39.978882 l 0.1138,39.97889 43.208407,0.22272 43.20836,0.22274 1.78179,0.96281 c 2.47695,1.33845 11.1711,10.28866 12.08063,12.43644 0.90522,2.13752 0.93513,6.13157 0.0616,8.21667 -0.93291,2.22671 -2.8448,4.33321 -4.9597,5.46452 l -1.83712,0.98274 -56.79452,0.0693 c -40.586291,0.0496 -57.239457,-0.0718 -58.35359,-0.42553 z M 159.38643,112.91363 c -10.49506,-1.36797 -19.46244,-5.84881 -27.19074,-13.586718 -5.77873,-5.785921 -9.43663,-11.683403 -11.86476,-19.128971 -1.62534,-4.98394 -2.10767,-8.648201 -2.13072,-16.187335 -0.0282,-9.230967 1.0116,-13.703105 4.98801,-21.452956 5.43412,-10.590918 14.41954,-19.005191 24.52383,-22.965032 6.03322,-2.3644 11.19908,-3.316356 17.99647,-3.316356 5.56311,0 6.9913,0.163082 11.58223,1.322537 20.51856,5.182025 34.46968,22.336463 36.05683,44.335806 0.57283,7.940115 -1.95113,19.364906 -5.85531,26.504112 -9.46013,17.298863 -28.56976,27.021323 -48.10584,24.474913 z m 25.34135,-20.487858 c 0.91586,-0.254353 1.85238,-0.812223 2.08114,-1.239689 0.22879,-0.427482 0.47057,-3.575814 0.53732,-6.996302 0.137,-7.023228 -0.0732,-7.696148 -2.78662,-8.919734 -1.14126,-0.514637 -2.16733,-0.655378 -3.26997,-0.44852 -0.88377,0.165796 -1.99899,0.176985 -2.47828,0.02486 -0.84236,-0.267345 -0.87142,-0.780298 -0.87142,-15.38274 0,-16.722878 -0.18832,-18.071238 -2.70578,-19.373066 -1.90381,-0.984497 -19.59419,-0.945369 -21.10827,0.04669 -2.45926,1.611371 -6.92181,9.840482 -6.92181,12.764077 0,3.093608 1.33701,4.074746 5.93603,4.356069 l 3.64109,0.222724 -0.1667,8.463497 c -0.11049,5.610243 -0.33577,8.573825 -0.66817,8.790762 -0.27582,0.179998 -1.82718,0.330336 -3.44751,0.334086 -2.58429,0.006 -3.09022,0.151017 -4.12038,1.181179 -0.64589,0.645898 -1.18413,1.39759 -1.19608,1.670427 -0.0126,0.272838 -0.0625,3.087863 -0.11253,6.255598 -0.10181,6.459045 0.25201,7.44689 2.94625,8.226409 2.00666,0.580567 32.63115,0.601449 34.71163,0.02368 z"
       style="fill:#040404;stroke-width:0.445447" />
  </g>
</svg>
