<?xml version="1.0" encoding="UTF-8" standalone="no"?>
<svg
   xmlns:dc="http://purl.org/dc/elements/1.1/"
   xmlns:cc="http://creativecommons.org/ns#"
   xmlns:rdf="http://www.w3.org/1999/02/22-rdf-syntax-ns#"
   xmlns:svg="http://www.w3.org/2000/svg"
   xmlns="http://www.w3.org/2000/svg"
   xmlns:sodipodi="http://sodipodi.sourceforge.net/DTD/sodipodi-0.dtd"
   xmlns:inkscape="http://www.inkscape.org/namespaces/inkscape"
   sodipodi:docname="RepeatAll.svg"
   inkscape:version="1.0 (4035a4fb49, 2020-05-01)"
   id="svg8"
   version="1.1"
   viewBox="0 0 297 210"
   height="210mm"
   width="297mm">
  <defs
     id="defs2" />
  <sodipodi:namedview
     inkscape:window-maximized="1"
     inkscape:window-y="0"
     inkscape:window-x="0"
     inkscape:window-height="966"
     inkscape:window-width="1920"
     showgrid="false"
     inkscape:document-rotation="0"
     inkscape:current-layer="layer1"
     inkscape:document-units="mm"
     inkscape:cy="560"
     inkscape:cx="397.14286"
     inkscape:zoom="0.35"
     inkscape:pageshadow="2"
     inkscape:pageopacity="0.0"
     borderopacity="1.0"
     bordercolor="#666666"
     pagecolor="#ffffff"
     id="base" />
  <metadata
     id="metadata5">
    <rdf:RDF>
      <cc:Work
         rdf:about="">
        <dc:format>image/svg+xml</dc:format>
        <dc:type
           rdf:resource="http://purl.org/dc/dcmitype/StillImage" />
        <dc:title></dc:title>
      </cc:Work>
    </rdf:RDF>
  </metadata>
  <g
     id="layer1"
     inkscape:groupmode="layer"
     inkscape:label="Livello 1">
    <path
       id="path170"
       d="m 229.68129,190.63182 c -1.71473,-0.85516 -8.04892,-6.93598 -26.46622,-25.40763 -26.22676,-26.30415 -25.43961,-25.36088 -25.39843,-30.43593 0.0279,-3.45123 1.33637,-5.78665 5.66929,-10.11959 4.13511,-4.1351 6.40477,-5.35137 10.01278,-5.36564 4.43989,-0.0176 5.95629,1.10482 16.29276,12.05923 5.08927,5.39351 9.4473,9.80639 9.68452,9.80639 0.26766,0 0.4313,-13.86515 0.4313,-36.54337 0,-35.967302 0.0145,-36.573913 0.93889,-38.482807 1.55978,-3.222097 3.38705,-3.817219 11.7203,-3.817219 h 6.90252 l 3.77748,2.536514 c 2.07761,1.395087 4.23891,3.047193 4.80289,3.671354 l 1.02542,1.134835 v 35.750333 c 0,22.16503 0.16381,35.75036 0.43106,35.75036 0.23708,0 4.5466,-4.35804 9.5767,-9.68452 10.31845,-10.92646 12.02657,-12.19799 16.36339,-12.1811 3.62805,0.0145 5.83921,1.18795 10.01406,5.3161 4.32322,4.27485 5.67722,6.68817 5.70547,10.16913 0.0412,5.07505 0.82832,4.13178 -25.39844,30.43593 -26.33393,26.41162 -26.47563,26.53183 -31.27599,26.53183 -1.80361,0 -3.21873,-0.33077 -4.80975,-1.1242 z M 52.19419,175.21273 c -2.239485,-0.71078 -6.052383,-4.66104 -6.737638,-6.9803 -0.420648,-1.42369 -0.554244,-14.13928 -0.554244,-52.75215 0,-31.692179 -0.16263,-50.876315 -0.431306,-50.876315 -0.237219,0 -4.595253,4.414655 -9.684517,9.810345 C 24.029314,85.819167 22.696752,86.760808 17.863343,86.372829 14.04103,86.066011 12.855951,85.366445 8.3818749,80.775865 3.8190472,76.094213 2.8370664,74.368331 2.8107769,70.984355 2.7713749,65.908399 1.9839816,66.851913 28.210088,40.548418 54.544016,14.136791 54.685702,14.016588 59.486062,14.016588 c 4.798271,0 4.943251,0.122921 31.29329,26.53183 24.016718,24.070366 24.236068,24.306911 25.000928,26.961432 1.41691,4.917402 0.1789,8.126068 -5.21733,13.52231 -4.23857,4.238561 -5.73068,5.067275 -9.60073,5.332229 -4.717832,0.322994 -6.128341,-0.685796 -16.884657,-12.075903 -5.030096,-5.326488 -9.340702,-9.684521 -9.579117,-9.684521 -0.271825,0 -0.390095,15.255922 -0.317137,40.902855 l 0.11643,40.90285 44.206981,0.22787 44.20698,0.22789 1.82297,0.98506 c 2.53419,1.36938 11.42927,10.52645 12.35983,12.72386 0.92614,2.18693 0.95674,6.27328 0.063,8.40657 -0.95447,2.27818 -2.91055,4.43335 -5.07433,5.59082 l -1.87957,1.00544 -58.10712,0.0709 c -41.524282,0.0507 -58.562326,-0.0735 -59.702221,-0.43536 z m 103.9092,-60.88547 c -12.81334,-2.83502 -23.74373,-10.19922 -30.70583,-20.687613 -3.77854,-5.69237 -6.65988,-12.695445 -7.6288,-18.541714 -1.03755,-6.260462 -0.66123,-17.833873 0.76023,-23.379207 1.79802,-7.014427 7.12234,-15.896071 13.19087,-22.004092 6.29997,-6.340958 13.88227,-10.612095 22.57965,-12.719197 6.84356,-1.657979 16.34413,-1.65899 23.22376,-0.0024 11.19983,2.696756 22.25931,10.303545 28.62927,19.691398 6.46394,9.526401 9.57353,22.025676 8.37963,33.682835 -1.82625,17.831517 -12.05199,32.70865 -27.50597,40.01765 -7.42617,3.51223 -11.34262,4.42958 -19.75713,4.62776 -5.92565,0.13952 -8.01767,0.0113 -11.16568,-0.68536 z m -1.75154,-34.640514 c 0.91829,-2.608098 1.88874,-5.222918 2.15654,-5.810712 l 0.48694,-1.068712 h 9.78133 c 7.3246,0 9.87394,0.143091 10.15004,0.569678 0.20279,0.313323 1.20405,2.928144 2.22505,5.810712 l 1.85633,5.241036 3.0429,0.134758 c 2.68119,0.118739 3.03988,0.03746 3.01756,-0.683613 -0.0145,-0.450106 -3.75777,-10.559861 -8.31964,-22.466124 l -8.29429,-21.647752 h -3.63496 -3.63495 l -8.30135,21.647752 c -4.56575,11.906263 -8.31242,22.016018 -8.32594,22.466124 -0.0216,0.721726 0.3385,0.802457 3.0501,0.683613 l 3.07471,-0.134758 z m 4.76095,-12.272142 c -0.33795,-0.546827 7.15561,-20.238528 7.70053,-20.235604 0.56597,0.0032 8.06817,19.640773 7.71912,20.205539 -0.31891,0.516014 -15.1015,0.544838 -15.41965,0.03008 z"
       style="fill:#040404;stroke-width:0.455742" />
  </g>
</svg>
